<svg width="206mm" height="186mm" version="1.1" viewBox="0 0 206 186" xmlns="http://www.w3.org/2000/svg" xmlns:xlink="http://www.w3.org/1999/xlink"><rect width="206" height="186" fill="#fff"/><path d="m73 169c-27-17-43-41-44-73-.9-28 12-58 44-77l43 75z" fill="#ceb" stroke="#000" stroke-width="2"/><circle cx="116" cy="94" r="86" fill="none" stroke="#000" stroke-linejoin="round"/><path id="a" d="m189 78 10.8-6l-12.4.2 2.7 2.4"/><use transform="rotate(-30 136.4 257)" xlink:href="#a"/><use transform="rotate(60 103.6 11)" xlink:href="#a"/><use transform="rotate(45 3-35.2)" xlink:href="#a"/><use transform="rotate(-15-108.5 545.5)" xlink:href="#a"/><path d="m63.5 3 52.5 91-51 89m0-4c-30-17-47-45-49-80-2-35 16-67.8 45-87.3m33 108.3c-7-6-11-13-11-24 0-12 4-22 14-29m98 6.4-79 20.6" fill="none" stroke="#000"/>
 <g font-family="Times" font-size="20px" font-style="italic"><text x="149" y="80">r</text><text x="69" y="104">θ</text><text x="3" y="99">L</text></g></svg>